<svg width="50" height="50" viewBox="0 0 640 401" fill="none" xmlns="http://www.w3.org/2000/svg">
<path d="M506.1 72.1C488.13 51.93 444.64 10.45 383.4 1C360.9 -2.354 338.01 4.606 319.99 19.21C302 5.47 279.1 -1.58 256.5 1.86C176.8 14.17 126.7 81.2 124.6 84.1C116.756 94.79 119.069 109.82 129.725 117.67C134.006 120.827 139.006 122.327 143.915 122.327C151.321 122.327 158.605 118.952 163.295 112.545C163.701 111.982 203.485 58.635 263.795 49.315C271.252 48.3539 278.775 49.985 285.355 53.798L227.2 113.2C214.8 125.5 207.1 141.1 207.1 159.5C207.1 177 213.912 193.44 226.26 205.79C239.5 218.2 255.9 224.1 273.4 224.1C290.9 224.1 307.34 217.287 319.71 204.91L331.06 193.56L455.26 294.46C457.572 296.335 457.916 299.711 455.76 302.43L428.07 338.18C426.226 340.43 422.82 340.774 420.914 339.243L398.694 320.553L372.504 348.303C370.16 351.178 367.16 351.866 365.598 352.022C363.942 352.178 361.036 352.147 358.786 350.303L326.376 322.643L310.7 337.3L307.888 340.238C302.044 347.395 293.798 351.898 284.608 352.838C275.139 353.651 266.358 351.088 260.108 346.056L170.3 264.8H96V73.3H0V328.9L64 328.94C75.74 328.94 85.57 322.234 91.14 312.8H151.78L228.84 382.46C243.7 394.6 261.9 401 280.8 401C283.675 401 286.581 400.875 289.456 400.562C303.076 399.156 315.866 394.499 326.926 387.062L327.832 387.875C339.862 397.751 355.112 402.285 370.522 400.655C383.712 399.28 395.802 393.623 404.432 385.305C425.522 393.493 450.522 387.649 465.682 368.835L493.372 333.085C511.842 310.265 508.342 276.605 485.528 258.075L365.228 160.315L373.609 151.933C382.984 142.557 382.984 127.363 373.609 117.993C364.234 108.617 349.049 108.617 339.669 117.993L285.8 171.8C279.2 178.5 267.7 178.5 261.1 171.8C257.788 168.518 255.975 164.143 255.975 159.49C255.975 154.802 257.787 150.426 261.256 146.96L347.166 59.32C354.978 51.475 365.696 47.57 376.106 49.29C435.856 58.51 476.306 112.02 476.706 112.58C479.794 116.735 483.97 119.526 488.546 120.956H544V296.056C544 313.726 558.33 328.106 575.1 328.106L640 329V73.1L506.1 72.1ZM48 297C39.25 297 32 289.755 32 281.01C32 272.134 39.25 265.02 48 265.02C56.75 265.02 64 272.2 64 281.1C64 289.8 56.75 297 48 297ZM592 297C583.25 297 576 289.755 576 281.01C576 272.134 583.25 265.02 592 265.02C600.75 265.02 608 272.137 608 281.01C608 289.8 600.8 297 592 297Z" fill="#3671E9"/>
</svg>
