<svg width="50" height="50" viewBox="0 0 629 501" fill="none" xmlns="http://www.w3.org/2000/svg">
<path d="M305.5 127.3C312.6 121 315.4 111.1 311.7 102.3C309.4 97 306.9 91.8 304.1 86.8L301 81.4C298 76.4 294.7 71.5 291.2 66.8C285.5 59.2 275.5 56.7 266.5 59.7L238.3 69C227.6 60.2 215.3 53 202.1 48.1L196 19.1C194.1 9.8 186.9 2.4 177.5 1.3C170.7 0.4 163.9 0 157 0C150.1 0 143.3 0.4 136.6 1.2C127.2 2.3 120 9.8 118.1 19L112 48.1C98.7 53.1 86.5 60.2 75.8 69L47.5 59.8C38.5 56.8 28.5 59.3 22.8 66.9C19.3 71.6 16 76.5 12.9 81.5L9.89999 86.8C7.09999 91.8 4.59999 97 2.29999 102.4C-1.40001 111.1 1.39999 121 8.49999 127.4L30.7 147.2C29.6 153.9 29 160.9 29 168C29 175.1 29.6 182.1 30.7 188.9L8.49999 208.7C1.39999 215 -1.40001 224.9 2.29999 233.7C4.59999 239 7.09999 244.2 9.89999 249.3L12.9 254.5C15.9 259.6 19.2 264.4 22.8 269.1C28.5 276.7 38.5 279.2 47.5 276.2L75.7 266.9C86.4 275.7 98.7 282.9 111.9 287.8L118 316.9C119.9 326.2 127.1 333.6 136.5 334.7C143.2 335.5 150 335.9 156.9 335.9C163.8 335.9 170.6 335.5 177.3 334.7C186.7 333.6 193.9 326.1 195.8 316.9L201.9 287.8C215.2 282.8 227.4 275.7 238.1 266.9L266.3 276.2C275.3 279.2 285.3 276.7 291 269.1C294.5 264.4 297.8 259.6 300.8 254.5L303.9 249.1C306.7 244.1 309.2 238.9 311.5 233.6C315.2 224.9 312.4 215 305.3 208.6L283.1 188.8C284.2 182 284.8 175 284.8 167.9C284.8 160.8 284.2 153.8 283.1 147L305.3 127.2L305.5 127.3ZM205 168C205 194.5 183.5 216 157 216C130.5 216 109 194.5 109 168C109 141.5 130.5 120 157 120C183.5 120 205 141.5 205 168ZM501.7 492.5C508 499.6 517.9 502.4 526.7 498.7C532 496.4 537.2 493.9 542.2 491.1L547.6 488C552.6 485 557.5 481.7 562.2 478.2C569.8 472.5 572.3 462.5 569.3 453.5L560 425.3C568.8 414.6 576 402.3 580.9 389.1L610 383C619.3 381.1 626.7 373.9 627.8 364.5C628.6 357.8 629 351 629 344.1C629 337.2 628.6 330.4 627.8 323.7C626.7 314.3 619.2 307.1 610 305.2L580.9 299C575.9 285.7 568.8 273.5 560 262.8L569.3 234.6C572.3 225.6 569.8 215.6 562.2 209.9C557.5 206.4 552.6 203.1 547.6 200L542.3 197C537.3 194.2 532.1 191.7 526.7 189.4C518 185.7 508.1 188.5 501.7 195.6L481.9 217.8C475.1 216.7 468.1 216.1 461 216.1C453.9 216.1 446.9 216.7 440.1 217.8L420.3 195.6C414 188.5 404.1 185.7 395.3 189.4C390 191.7 384.8 194.2 379.7 197L374.5 200C369.4 203 364.6 206.3 359.9 209.9C352.3 215.6 349.8 225.6 352.8 234.6L362.1 262.8C353.3 273.5 346.1 285.8 341.2 299L312.1 305C302.8 306.9 295.4 314.1 294.3 323.5C293.5 330.2 293.1 337 293.1 343.9C293.1 350.8 293.5 357.6 294.3 364.3C295.4 373.7 302.9 380.9 312.1 382.8L341.2 388.9C346.2 402.2 353.3 414.4 362.1 425.1L352.8 453.3C349.8 462.3 352.3 472.3 359.9 478C364.6 481.5 369.4 484.8 374.5 487.8L379.9 490.9C384.9 493.7 390.1 496.2 395.4 498.5C404.1 502.2 414 499.4 420.4 492.3L440.2 470.1C447 471.2 454 471.8 461.1 471.8C468.2 471.8 475.2 471.2 482 470.1L501.8 492.3L501.7 492.5ZM461 392C434.5 392 413 370.5 413 344C413 317.5 434.5 296 461 296C487.5 296 509 317.5 509 344C509 370.5 487.5 392 461 392Z" fill="#3671E9"/>
</svg>
