<svg width="22" height="50" viewBox="0 0 18 42" fill="none" xmlns="http://www.w3.org/2000/svg">
<path fill-rule="evenodd" clip-rule="evenodd" d="M17.6878 2.95758L16.2217 1.96786L15.2108 2.00491L14.604 1.96078L13.9812 1.71558L13.4078 1.25864L13.1309 0.889923L13.0444 0.807007L12.9968 0.777039L12.8927 0.717041L12.7145 0.646454L12.5257 0.584747L12.4464 0.589996L12.0106 0.687042L11.9489 0.706451L11.6313 0.881104L11.5942 0.925201L11.2961 1.2851L11.2255 1.38037L10.9274 1.98901L10.8991 2.04193L10.9185 2.11606L10.9468 2.16544L11.5342 2.56592L11.5131 2.6312L11.2273 2.44244L11.125 2.38773L10.9838 2.36304L10.9185 2.38068L10.8603 2.41068L10.7668 2.48123L10.7333 2.53064L10.6575 2.61533L10.4175 2.78998L10.1282 2.91699L9.78064 3.06519L9.22845 3.20102L8.93384 3.32098L7.65833 4.26837L7.61069 4.3107L7.16788 4.85056L7.10437 4.94934L6.78503 5.83145L6.72153 5.95847L6.49396 6.57416L6.38632 7.06815L6.24344 8.25897L6.16757 8.26602L6.13052 8.30838L5.14258 9.55917L4.66449 10.2084L4.63977 10.2649L4.45807 11.0623L4.39984 11.334L4.36633 11.5527L4.32047 11.7344L4.19519 11.9461L3.90057 12.426L3.76474 12.6606L3.70654 12.77L3.60596 12.9923L3.50012 13.2852L3.26724 14.1725L3.24606 14.2396L3.05905 15.1923L3.04849 15.4022L2.65329 15.9861L2.60037 16.1044L2.1611 17.2952L1.79944 18.4984L1.59653 19.1952L1.55597 19.3134L1.24899 20.0755L1.07257 20.229L0.86795 20.6718L0.845001 20.73L0.289276 22.6195L0.264557 22.7571L0.275146 22.8295L0.409241 23.3552L0.612122 23.9797L0.629761 24.0379L0.695038 24.2126L0.815033 24.5213L1.0867 25.3011L1.1008 25.3699L1.2243 26.125L1.2049 26.1797L1.16431 26.2185L1.04788 26.2732L0.88559 26.6613L0.815033 26.9171L0.710938 27.3987L0.560974 28.2544L0.553925 28.3214L0.569794 28.392L0.605072 28.4431L0.656219 28.4713L0.710938 28.4925H0.87674L0.938507 28.5102L0.993195 28.5437L1.01965 28.5896L1.14667 28.9389L1.15018 29.0094L1.11316 29.0553L1.03375 29.1365L0.827362 29.1664L0.710938 29.2264L0.682678 29.2776L0.65976 29.4152L0.702087 29.5352L0.726776 29.5952L0.765594 29.6339L0.87323 29.6869L1.38483 29.8633L1.67593 29.7063L2.11169 30.4684L2.24048 30.9906L2.34808 31.2888L2.82089 32.3491L2.91968 32.4973L3.23373 32.8854L3.57245 33.3829L3.59183 33.4499V33.5346L3.48599 33.7516L3.52658 33.8821L3.59537 33.9827L3.71359 34.108L3.83353 34.2279L3.88824 34.2544L3.94116 34.2826L4.23578 34.3867L4.46866 34.6461L4.59918 34.8401L4.72623 35.043L4.77563 35.1559L4.76682 35.2141L4.67859 35.1647L4.45807 34.9795L4.42807 34.923L4.36279 34.8401L4.39984 34.923L4.4722 35.0342L4.74387 35.2371L4.91498 35.357L4.96439 35.3888L5.35074 35.5705L5.40369 35.5952L5.45132 35.6058L5.5307 35.6005L5.7865 35.5087L5.86237 35.5864L5.94705 35.6675L6.14465 35.7981L6.52393 35.9851L6.59451 36.0063L6.67389 35.9974L6.86972 36.045L7.46954 36.4226L7.72006 36.5779L7.76065 36.6219L8.2352 37.1336L8.37988 37.3153L8.51218 37.5076L9.20023 38.5378L9.24963 38.6472L9.50897 39.2806L9.54425 39.4058L9.57599 40.011L9.92355 41.2406L9.94296 41.2988L10.0347 41.3712L10.0912 41.3923L10.1529 41.4153L10.2252 41.4029L11.3437 41.2141L11.746 39.8734L11.7601 39.8081L11.6683 39.1253L11.3437 37.5693L11.1885 37.0824L11.1391 36.8901L11.095 36.599L11.0932 36.5179L11.1108 36.2991L11.5678 33.891L11.6613 33.4834L12.0176 32.6243L12.1482 32.3456L12.5734 31.6381L12.8592 31.4282L12.9774 31.384L13.0744 31.3223L13.1538 31.2235L13.4325 30.8477L14.147 29.0694L14.8104 26.7019L15.3696 23.7186L15.442 22.8136V22.6513L15.4314 22.5595L15.5196 21.7851L15.509 19.1829L15.7295 16.7465L15.7154 15.7444L15.6607 15.1429L15.576 15.0635L15.4808 14.91L15.4578 14.8553L15.4455 14.6172L15.4613 14.5518L15.8177 13.294L15.9483 13.0258L16.5199 11.9391L16.5922 11.8491L16.7827 11.7044L16.6081 11.4698L16.5781 11.4169L16.5675 11.3375L16.5887 10.3831L16.6046 10.2278L16.7245 9.94379L16.7845 9.845L16.908 9.72678L17.0527 9.61035L17.132 9.53094L17.1515 8.83762L17.0897 8.48126L16.9909 8.15665L16.8939 8.0014L16.7157 7.93436L16.631 7.84967L16.5993 7.80557L16.5446 7.68915L16.1459 6.45419L16.1053 6.32013L16.1035 5.91791L16.0947 5.37628L16.1035 5.22455L16.1159 5.16104L16.1829 4.97406L16.5816 4.15195L16.6134 4.09723L16.8939 3.71793L17.2114 3.4639L17.4267 3.32098L17.5202 3.27866L17.6595 3.16751L17.7036 3.12692L17.7354 3.07751L17.7284 2.9964L17.6878 2.95758Z" fill="#3671E9"/>
</svg>
